<svg width="960" height="720" viewBox="0 0 960 720" fill="none" xmlns="http://www.w3.org/2000/svg" role="img" aria-labelledby="title desc">
  <title id="title">Featured code GitHub stats for Zifan Wang</title>
  <desc id="desc">A robotics dashboard visualizing stars and forks across featured repositories.</desc>
  <defs>
    <linearGradient id="bg" x1="0" y1="0" x2="960" y2="720" gradientUnits="userSpaceOnUse">
      <stop offset="0" stop-color="#FFFFFF"/>
      <stop offset="0.48" stop-color="#F8FBFF"/>
      <stop offset="1" stop-color="#FFF7F3"/>
    </linearGradient>
    <linearGradient id="headline" x1="72" y1="64" x2="805" y2="142" gradientUnits="userSpaceOnUse">
      <stop stop-color="#16325C"/>
      <stop offset="0.52" stop-color="#E85D75"/>
      <stop offset="1" stop-color="#17B890"/>
    </linearGradient>
    <filter id="softShadow" x="-20%" y="-20%" width="140%" height="140%">
      <feDropShadow dx="0" dy="12" stdDeviation="18" flood-color="#16325C" flood-opacity="0.12"/>
    </filter>
    <style>
      text { font-family: Arial, Helvetica, sans-serif; letter-spacing: 0; }
      .label { fill: #60708A; font-size: 13px; font-weight: 600; }
      .title { fill: url(#headline); font-size: 34px; font-weight: 800; }
      .subtitle { fill: #526174; font-size: 15px; font-weight: 500; }
      .metric { fill: #16325C; font-size: 46px; font-weight: 800; }
      .metric-small { fill: #16325C; font-size: 24px; font-weight: 800; }
      .repo-title { fill: #16325C; font-size: 15px; font-weight: 700; }
      .repo-meta { fill: #6B778C; font-size: 11px; font-weight: 500; }
      .repo-stars { fill: #16325C; font-size: 16px; font-weight: 800; text-anchor: end; }
      .repo-forks { fill: #6B778C; font-size: 11px; font-weight: 600; text-anchor: end; }
    </style>
  </defs>

  <rect width="960" height="720" rx="24" fill="url(#bg)"/>
  <rect x="30" y="28" width="900" height="664" rx="22" fill="#FFFFFF" filter="url(#softShadow)"/>
  <rect x="31" y="29" width="898" height="662" rx="21" stroke="#E4EAF4"/>

  <text x="70" y="82" class="label">FEATURED CODE SIGNAL</text>
  <text x="70" y="124" class="title">Robotics GitHub Dashboard</text>
  <text x="70" y="153" class="subtitle">Stars across robot learning, simulation, perception, and loco-manipulation repositories.</text>

  <g transform="translate(68 200)">
    <rect width="280" height="272" rx="18" fill="#F7FAFE" stroke="#E4EAF4"/>
    <circle cx="140" cy="116" r="92" fill="none" stroke="#E8EEF7" stroke-width="18"/>
    <circle cx="140" cy="116" r="92" fill="none" stroke="#E85D75" stroke-width="18" stroke-linecap="round" stroke-dasharray="439 578" transform="rotate(-90 140 116)"/>
    <circle cx="140" cy="116" r="64" fill="none" stroke="#17B890" stroke-width="10" stroke-linecap="round" stroke-dasharray="270 578" transform="rotate(-32 140 116)"/>
    <text x="140" y="105" class="metric" text-anchor="middle">3,180</text>
    <text x="140" y="132" class="label" text-anchor="middle">tracked stars</text>

    <g transform="translate(28 210)">
      <rect width="66" height="44" rx="12" fill="#FFFFFF" stroke="#E4EAF4"/>
      <text x="33" y="21" class="metric-small" text-anchor="middle">8</text>
      <text x="33" y="36" class="label" text-anchor="middle">repos</text>
    </g>
    <g transform="translate(106 210)">
      <rect width="72" height="44" rx="12" fill="#FFFFFF" stroke="#E4EAF4"/>
      <text x="36" y="21" class="metric-small" text-anchor="middle">256</text>
      <text x="36" y="36" class="label" text-anchor="middle">forks</text>
    </g>
    <g transform="translate(190 210)">
      <rect width="62" height="44" rx="12" fill="#FFFFFF" stroke="#E4EAF4"/>
      <text x="31" y="21" class="metric-small" text-anchor="middle">845</text>
      <text x="31" y="36" class="label" text-anchor="middle">top</text>
    </g>
  </g>

  <text x="398" y="192" class="label">REPOSITORY STAR DISTRIBUTION</text>
  <g transform="translate(398 206)">
  <text x="0" y="0" class="repo-title">UniLab</text>
  <text x="0" y="18" class="repo-meta">unilabsim/UniLab / Heterogeneous RL</text>
  <rect x="0" y="26" width="380" height="11" rx="5.5" fill="#E9EEF7"/>
  <rect x="0" y="26" width="380" height="11" rx="5.5" fill="#17B890"/>
  <circle cx="380" cy="31.5" r="7" fill="#17B890" opacity="0.2"/>
  <circle cx="380" cy="31.5" r="3.5" fill="#17B890"/>
  <text x="468" y="7" class="repo-stars">845</text>
  <text x="468" y="25" class="repo-forks">91 forks</text>
</g>

<g transform="translate(398 260)">
  <text x="0" y="0" class="repo-title">OmniPerception</text>
  <text x="0" y="18" class="repo-meta">aCodeDog/OmniPerception / Legged Perception</text>
  <rect x="0" y="26" width="380" height="11" rx="5.5" fill="#E9EEF7"/>
  <rect x="0" y="26" width="233" height="11" rx="5.5" fill="#2F80ED"/>
  <circle cx="233" cy="31.5" r="7" fill="#2F80ED" opacity="0.2"/>
  <circle cx="233" cy="31.5" r="3.5" fill="#2F80ED"/>
  <text x="468" y="7" class="repo-stars">518</text>
  <text x="468" y="25" class="repo-forks">40 forks</text>
</g>

<g transform="translate(398 314)">
  <text x="0" y="0" class="repo-title">GS-Playground</text>
  <text x="0" y="18" class="repo-meta">discoverse-dev/gs_playground / Simulation</text>
  <rect x="0" y="26" width="380" height="11" rx="5.5" fill="#E9EEF7"/>
  <rect x="0" y="26" width="196" height="11" rx="5.5" fill="#F59E0B"/>
  <circle cx="196" cy="31.5" r="7" fill="#F59E0B" opacity="0.2"/>
  <circle cx="196" cy="31.5" r="3.5" fill="#F59E0B"/>
  <text x="468" y="7" class="repo-stars">436</text>
  <text x="468" y="25" class="repo-forks">34 forks</text>
</g>

<g transform="translate(398 368)">
  <text x="0" y="0" class="repo-title">Legged Robots Manipulation</text>
  <text x="0" y="18" class="repo-meta">aCodeDog/legged-robots-manipulation / Loco-Manipulation</text>
  <rect x="0" y="26" width="380" height="11" rx="5.5" fill="#E9EEF7"/>
  <rect x="0" y="26" width="181" height="11" rx="5.5" fill="#E85D75"/>
  <circle cx="181" cy="31.5" r="7" fill="#E85D75" opacity="0.2"/>
  <circle cx="181" cy="31.5" r="3.5" fill="#E85D75"/>
  <text x="468" y="7" class="repo-stars">402</text>
  <text x="468" y="25" class="repo-forks">40 forks</text>
</g>

<g transform="translate(398 422)">
  <text x="0" y="0" class="repo-title">DiT4DiT</text>
  <text x="0" y="18" class="repo-meta">Mondo-Robotics/DiT4DiT / Robot Control</text>
  <rect x="0" y="26" width="380" height="11" rx="5.5" fill="#E9EEF7"/>
  <rect x="0" y="26" width="181" height="11" rx="5.5" fill="#8B5CF6"/>
  <circle cx="181" cy="31.5" r="7" fill="#8B5CF6" opacity="0.2"/>
  <circle cx="181" cy="31.5" r="3.5" fill="#8B5CF6"/>
  <text x="468" y="7" class="repo-stars">402</text>
  <text x="468" y="25" class="repo-forks">29 forks</text>
</g>

<g transform="translate(398 476)">
  <text x="0" y="0" class="repo-title">Awesome Loco-Manipulation</text>
  <text x="0" y="18" class="repo-meta">aCodeDog/awesome-loco-manipulation / Reading List</text>
  <rect x="0" y="26" width="380" height="11" rx="5.5" fill="#E9EEF7"/>
  <rect x="0" y="26" width="137" height="11" rx="5.5" fill="#06B6D4"/>
  <circle cx="137" cy="31.5" r="7" fill="#06B6D4" opacity="0.2"/>
  <circle cx="137" cy="31.5" r="3.5" fill="#06B6D4"/>
  <text x="468" y="7" class="repo-stars">305</text>
  <text x="468" y="25" class="repo-forks">9 forks</text>
</g>

<g transform="translate(398 530)">
  <text x="0" y="0" class="repo-title">PMT</text>
  <text x="0" y="18" class="repo-meta">Mondo-Robotics/PMT / Behavior Foundation Model</text>
  <rect x="0" y="26" width="380" height="11" rx="5.5" fill="#E9EEF7"/>
  <rect x="0" y="26" width="94" height="11" rx="5.5" fill="#D946EF"/>
  <circle cx="94" cy="31.5" r="7" fill="#D946EF" opacity="0.2"/>
  <circle cx="94" cy="31.5" r="3.5" fill="#D946EF"/>
  <text x="468" y="7" class="repo-stars">208</text>
  <text x="468" y="25" class="repo-forks">12 forks</text>
</g>

<g transform="translate(398 584)">
  <text x="0" y="0" class="repo-title">Genesis Legged Gym</text>
  <text x="0" y="18" class="repo-meta">aCodeDog/genesis_legged_gym / Training Framework</text>
  <rect x="0" y="26" width="380" height="11" rx="5.5" fill="#E9EEF7"/>
  <rect x="0" y="26" width="29" height="11" rx="5.5" fill="#84CC16"/>
  <circle cx="29" cy="31.5" r="7" fill="#84CC16" opacity="0.2"/>
  <circle cx="29" cy="31.5" r="3.5" fill="#84CC16"/>
  <text x="468" y="7" class="repo-stars">64</text>
  <text x="468" y="25" class="repo-forks">1 forks</text>
</g>


  <g transform="translate(70 652)">
    <rect width="820" height="1" fill="#E4EAF4"/>
    <text x="0" y="28" class="subtitle">Updated 2026-07-20 UTC from the GitHub API.</text>
    <text x="820" y="28" class="subtitle" text-anchor="end">Robot learning code portfolio</text>
  </g>
</svg>
